<svg xmlns="http://www.w3.org/2000/svg" viewBox="0 0 246.54726 294.0701" width="246.54726" height="294.0701">
  <defs>
    <linearGradient id="kDeerBase" x1="0" y1="0" x2="0" y2="1">
      <stop offset="0%" stop-color="#C9503B"/>
      <stop offset="100%" stop-color="#9E3A28"/>
    </linearGradient>
  </defs>
  <path fill="url(#kDeerBase)" d="M116,150 C150,150 176,161 187,181 C198,201 199,240 192,270 C186,290 168,294 116,294 C64,294 46,290 40,270 C33,240 34,201 45,181 C56,161 82,150 116,150 Z"/>
  <path d="M97,160 C90,168 86,178 88,188 C94,181 102,176 111,173 C107,168 102,163 97,160 Z" fill="#7A2C1E"/>
  <path d="M135,160 C142,168 146,178 144,188 C138,181 130,176 121,173 C125,168 130,163 135,160 Z" fill="#7A2C1E"/>
  <g fill="none" stroke="#F4EFE9" stroke-width="1.6" opacity="0.6">
    <path d="M40,182 L192,182"/>
    <path d="M35,282 L197,282"/>
  </g>
  <g fill="#EAD3A9" transform="translate(116,225)">
    <path d="M-8,-40 C-14,-50 -22,-52 -26,-46 C-20,-44 -16,-40 -14,-34" fill="none" stroke="#EAD3A9" stroke-width="3" stroke-linecap="round"/>
    <path d="M8,-40 C14,-50 22,-52 26,-46 C20,-44 16,-40 14,-34" fill="none" stroke="#EAD3A9" stroke-width="3" stroke-linecap="round"/>
    <ellipse cx="0" cy="-16" rx="24" ry="20"/>
    <ellipse cx="-11" cy="-24" rx="7" ry="9"/>
    <ellipse cx="11" cy="-24" rx="7" ry="9"/>
    <circle cx="-8" cy="-16" r="2.4" fill="#4A3324"/>
    <circle cx="8" cy="-16" r="2.4" fill="#4A3324"/>
    <circle cx="0" cy="-6" r="2.6" fill="#4A3324"/>
  </g>
</svg>
